<svg width="256" height="256" viewBox="0 0 256 256" fill="none" xmlns="http://www.w3.org/2000/svg">
<path d="M38.4211 130.574C46.2094 114.178 53.804 102.314 61.1014 94.6325C68.4018 86.9479 74.8529 84 80.5014 84C86.1499 84 92.601 86.9479 99.9014 94.6325C100.289 95.0405 100.677 95.4603 101.067 95.892C102.465 91.711 106.277 88.8475 110.511 88.4518C109.876 87.7339 109.239 87.0391 108.601 86.3675C100.068 77.3855 90.6863 72 80.5014 72C70.3165 72 60.9343 77.3855 52.4014 86.3675C43.8655 95.3527 35.6268 108.489 27.5817 125.426C26.16 128.419 27.4339 131.998 30.4271 133.42C33.4203 134.841 36.9993 133.568 38.4211 130.574Z" fill="white"/>
<path d="M146.505 149.071L136.094 155.081C139.81 160.745 143.576 165.605 147.401 169.632C155.934 178.615 165.317 184 175.501 184C185.686 184 195.068 178.615 203.601 169.632C212.137 160.647 220.376 147.511 228.421 130.574C229.843 127.581 228.569 124.002 225.576 122.58C222.583 121.159 219.004 122.432 217.582 125.426C209.793 141.822 202.199 153.686 194.901 161.368C187.601 169.052 181.15 172 175.501 172C169.853 172 163.402 169.052 156.101 161.368C152.955 158.055 149.753 153.966 146.505 149.071Z" fill="white"/>
<path d="M162 124.536C164.667 126.075 164.667 129.924 162 131.464L114 159.177C111.334 160.717 108 158.792 108 155.713V100.287C108 97.208 111.334 95.2835 114 96.8231L162 124.536Z" fill="white"/>
</svg>
