<svg width="256" height="256" viewBox="0 0 256 256" fill="none" xmlns="http://www.w3.org/2000/svg">
<circle cx="128" cy="128" r="128" fill="black"/>
<path d="M38.4211 128.574C46.2094 112.178 53.804 100.314 61.1014 92.6325C68.4018 84.9479 74.8529 82 80.5014 82C86.1499 82 92.601 84.9479 99.9014 92.6325C100.289 93.0405 100.677 93.4603 101.067 93.892C102.465 89.711 106.277 86.8475 110.511 86.4518C109.876 85.7339 109.239 85.0391 108.601 84.3675C100.068 75.3855 90.6863 70 80.5014 70C70.3165 70 60.9343 75.3855 52.4014 84.3675C43.8655 93.3527 35.6268 106.489 27.5817 123.426C26.16 126.419 27.4339 129.998 30.4271 131.42C33.4203 132.841 36.9993 131.568 38.4211 128.574Z" fill="url(#paint0_linear_70_36)"/>
<path d="M146.505 147.071L136.094 153.081C139.81 158.745 143.576 163.605 147.401 167.632C155.934 176.615 165.317 182 175.501 182C185.686 182 195.068 176.615 203.601 167.632C212.137 158.647 220.376 145.511 228.421 128.574C229.843 125.581 228.569 122.002 225.576 120.58C222.583 119.159 219.004 120.432 217.582 123.426C209.793 139.822 202.199 151.686 194.901 159.368C187.601 167.052 181.15 170 175.501 170C169.853 170 163.402 167.052 156.101 159.368C152.955 156.055 149.753 151.966 146.505 147.071Z" fill="url(#paint1_linear_70_36)"/>
<path d="M162 122.536C164.667 124.075 164.667 127.924 162 129.464L114 157.177C111.334 158.717 108 156.792 108 153.713V98.2872C108 95.208 111.334 93.2835 114 94.8231L162 122.536Z" fill="url(#paint2_linear_70_36)"/>
<defs>
<linearGradient id="paint0_linear_70_36" x1="128.001" y1="70" x2="128.001" y2="182" gradientUnits="userSpaceOnUse">
<stop stop-color="#CC55FF"/>
<stop offset="0.9999" stop-color="#55CCFF"/>
<stop offset="1" stop-color="white" stop-opacity="0"/>
</linearGradient>
<linearGradient id="paint1_linear_70_36" x1="128.001" y1="70" x2="128.001" y2="182" gradientUnits="userSpaceOnUse">
<stop stop-color="#CC55FF"/>
<stop offset="0.9999" stop-color="#55CCFF"/>
<stop offset="1" stop-color="white" stop-opacity="0"/>
</linearGradient>
<linearGradient id="paint2_linear_70_36" x1="128.001" y1="70" x2="128.001" y2="182" gradientUnits="userSpaceOnUse">
<stop stop-color="#CC55FF"/>
<stop offset="0.9999" stop-color="#55CCFF"/>
<stop offset="1" stop-color="white" stop-opacity="0"/>
</linearGradient>
</defs>
</svg>
