<svg width="256" height="256" viewBox="0 0 256 256" fill="none" xmlns="http://www.w3.org/2000/svg">
<path d="M28 72H230V184H28V72Z" fill="url(#paint0_linear_7_2)"/>
<path fill-rule="evenodd" clip-rule="evenodd" d="M0 0H256V256H0V0ZM39.4206 130.574C47.2089 114.178 54.8035 102.314 62.1009 94.6325C69.4013 86.9479 75.8525 84 81.5009 84C87.1494 84 93.6005 86.9479 100.901 94.6325C101.053 94.7928 101.206 94.955 101.358 95.119C103.073 91.0598 107.132 88.4242 111.469 88.4049C110.848 87.7036 110.225 87.0245 109.601 86.3675C101.068 77.3855 91.6858 72 81.5009 72C71.3161 72 61.9339 77.3855 53.4009 86.3675C44.865 95.3527 36.6263 108.489 28.5813 125.426C27.1595 128.419 28.4334 131.998 31.4266 133.42C34.4198 134.841 37.9988 133.568 39.4206 130.574ZM147.228 148.653L136.82 154.662C140.624 160.505 144.481 165.506 148.401 169.633C156.934 178.615 166.316 184 176.501 184C186.686 184 196.068 178.615 204.601 169.633C213.137 160.647 221.376 147.511 229.421 130.574C230.842 127.581 229.568 124.002 226.575 122.58C223.582 121.159 220.003 122.432 218.581 125.426C210.793 141.822 203.198 153.686 195.901 161.368C188.601 169.052 182.149 172 176.501 172C170.852 172 164.401 169.052 157.101 161.368C153.865 157.962 150.571 153.734 147.228 148.653ZM162 131.464C164.667 129.924 164.667 126.075 162 124.536L114 96.8231C111.333 95.2835 108 97.208 108 100.287V155.713C108 158.792 111.333 160.717 114 159.177L162 131.464Z" fill="black"/>
<defs>
<linearGradient id="paint0_linear_7_2" x1="129" y1="72" x2="129" y2="184" gradientUnits="userSpaceOnUse">
<stop stop-color="#CC55FF"/>
<stop offset="1" stop-color="#55CCFF"/>
</linearGradient>
</defs>
</svg>
